# xmcd
#
# Track frame offsets:
#	150
#	7335
#	7831
#	20825
#	39779
#	60004
#	80776
#	95192
#	109969
#	124313
#	138559
#	159100
#	172456
#	192558
#	203996
#	220636
#	243006
#
# Disc length: 3550 seconds
#
# Revision: 8
# Processed by: cddbd v1.5.2PL0 Copyright (c) Steve Scherf et al.
# Submitted via: Jack! The Knife
#
DISCID=ec0ddc11
DTITLE=Queensryche - Operation: Mindcrime II
DYEAR=2006
DGENRE=Heavy Metal
TTITLE0=Freiheit Overture
TTITLE1=Convict
TTITLE2=I'm American
TTITLE3=One Foot In Hell
TTITLE4=Hostage
TTITLE5=The Hands
TTITLE6=Speed Of Light
TTITLE7=Signs Say Go
TTITLE8=Re-Arrange You
TTITLE9=The Chase
TTITLE10=Murderer?
TTITLE11=Circles
TTITLE12=If I Could Change It All
TTITLE13=An Intentional Confrontation
TTITLE14=A Junkie's Blues
TTITLE15=Fear City Slide
TTITLE16=All The Promises
EXTD=Jason Slater
EXTT0=Queensryche
EXTT1=Queensryche
EXTT2=Geoff Tate
EXTT3=Geoff Tate
EXTT4=Geoff Tate
EXTT5=Geoff Tate
EXTT6=Geoff Tate
EXTT7=Geoff Tate
EXTT8=Geoff Tate
EXTT9=Geoff Tate
EXTT10=Geoff Tate
EXTT11=Geoff Tate
EXTT12=Geoff Tate
EXTT13=Geoff Tate
EXTT14=Geoff Tate
EXTT15=Geoff Tate
EXTT16=Geoff Tate
PLAYORDER=
